<?xml version="1.0" standalone="no"?>
<!DOCTYPE svg PUBLIC "-//W3C//DTD SVG 20010904//EN"
 "http://www.w3.org/TR/2001/REC-SVG-20010904/DTD/svg10.dtd">
<svg version="1.0" xmlns="http://www.w3.org/2000/svg"
 width="200.000000pt" height="200.000000pt" viewBox="0 0 200.000000 200.000000"
 preserveAspectRatio="xMidYMid meet">
<metadata>
Created by potrace 1.14, written by Peter Selinger 2001-2017
</metadata>
<g transform="translate(0.000000,200.000000) scale(0.100000,-0.100000)"
fill="#000000" stroke="none">
<path d="M878 1975 c-1 -2 -21 -6 -43 -9 -294 -46 -573 -254 -712 -531 -35
-68 -78 -201 -90 -272 -16 -96 -8 -302 14 -389 95 -366 357 -629 721 -725 104
-28 299 -34 405 -13 380 73 683 355 776 719 21 82 23 103 26 220 5 178 -20
295 -101 460 -135 276 -377 460 -699 531 -32 7 -291 15 -297 9z m312 -65 c284
-58 532 -257 655 -524 36 -77 70 -184 62 -193 -10 -10 -133 40 -222 89 -49 28
-171 106 -270 173 -296 201 -375 235 -560 241 -139 4 -199 -7 -303 -57 -62
-30 -102 -58 -154 -110 -69 -67 -83 -93 -37 -69 37 21 175 8 233 -20 109 -55
167 -151 161 -270 -10 -236 -209 -447 -489 -519 -123 -32 -119 -33 -149 56
-38 118 -51 218 -44 346 16 278 150 528 372 692 118 88 278 157 394 171 25 3
48 7 50 10 12 11 222 0 301 -16z"/>
</g>
</svg>
